<svg width="220" height="843" xmlns="http://www.w3.org/2000/svg" xmlns:xlink="http://www.w3.org/1999/xlink" xml:space="preserve" overflow="hidden"><g transform="translate(-1576 -504)"><g><path d="M1582.5 613C1582.5 555.838 1628.84 509.5 1686 509.5 1743.16 509.5 1789.5 555.838 1789.5 613 1789.5 670.161 1743.16 716.5 1686 716.5 1628.84 716.5 1582.5 670.161 1582.5 613Z" stroke="#042433" stroke-width="6.875" stroke-linecap="butt" stroke-linejoin="miter" stroke-miterlimit="8" stroke-opacity="1" fill="none" fill-rule="evenodd"/><text fill="#000000" fill-opacity="1" font-family="Cambria Math,Cambria Math_MSFontService,sans-serif" font-style="normal" font-variant="normal" font-weight="400" font-stretch="normal" font-size="83" text-anchor="start" direction="ltr" writing-mode="lr-tb" unicode-bidi="normal" text-decoration="none" transform="matrix(1 0 0 1 1658.57 639)">⊤</text><path d="M1582.5 1238C1582.5 1180.84 1628.84 1134.5 1686 1134.5 1743.16 1134.5 1789.5 1180.84 1789.5 1238 1789.5 1295.16 1743.16 1341.5 1686 1341.5 1628.84 1341.5 1582.5 1295.16 1582.5 1238Z" stroke="#042433" stroke-width="6.875" stroke-linecap="butt" stroke-linejoin="miter" stroke-miterlimit="8" stroke-opacity="1" fill="none" fill-rule="evenodd"/><text fill="#000000" fill-opacity="1" font-family="Cambria Math,Cambria Math_MSFontService,sans-serif" font-style="normal" font-variant="normal" font-weight="400" font-stretch="normal" font-size="83" text-anchor="start" direction="ltr" writing-mode="lr-tb" unicode-bidi="normal" text-decoration="none" transform="matrix(1 0 0 1 1658.57 1264)">⊥</text><path d="M1582.5 925.5C1582.5 868.615 1628.84 822.5 1686 822.5 1743.16 822.5 1789.5 868.615 1789.5 925.5 1789.5 982.385 1743.16 1028.5 1686 1028.5 1628.84 1028.5 1582.5 982.385 1582.5 925.5Z" stroke="#042433" stroke-width="6.875" stroke-linecap="butt" stroke-linejoin="miter" stroke-miterlimit="8" stroke-opacity="1" fill="none" fill-rule="evenodd"/><text fill="#000000" fill-opacity="1" font-family="Aptos,Aptos_MSFontService,sans-serif" font-style="normal" font-variant="normal" font-weight="400" font-stretch="normal" font-size="83" text-anchor="start" direction="ltr" writing-mode="lr-tb" unicode-bidi="normal" text-decoration="none" transform="matrix(1 0 0 1 1663.72 951)">a</text><path d="M1686.5 1134.36 1686.5 1028.5" stroke="#156082" stroke-width="6.875" stroke-linecap="butt" stroke-linejoin="miter" stroke-miterlimit="8" stroke-opacity="1" fill="none" fill-rule="evenodd"/><path d="M0 0 0.000721785 105.858" stroke="#156082" stroke-width="6.875" stroke-linecap="butt" stroke-linejoin="miter" stroke-miterlimit="8" stroke-opacity="1" fill="none" fill-rule="evenodd" transform="matrix(1 0 0 -1 1686.5 822.358)"/></g></g></svg>