<svg width="720" height="852" xmlns="http://www.w3.org/2000/svg" xmlns:xlink="http://www.w3.org/1999/xlink" xml:space="preserve" overflow="hidden"><g transform="translate(-2502 -504)"><g><path d="M2758.5 613C2758.5 555.838 2804.61 509.5 2861.5 509.5 2918.39 509.5 2964.5 555.838 2964.5 613 2964.5 670.161 2918.39 716.5 2861.5 716.5 2804.61 716.5 2758.5 670.161 2758.5 613Z" stroke="#042433" stroke-width="6.875" stroke-linecap="butt" stroke-linejoin="miter" stroke-miterlimit="8" stroke-opacity="1" fill="none" fill-rule="evenodd"/><text fill="#000000" fill-opacity="1" font-family="Cambria Math,Cambria Math_MSFontService,sans-serif" font-style="normal" font-variant="normal" font-weight="400" font-stretch="normal" font-size="83" text-anchor="start" direction="ltr" writing-mode="lr-tb" unicode-bidi="normal" text-decoration="none" transform="matrix(1 0 0 1 2833.78 639)">⊤</text><path d="M2758.5 1247C2758.5 1189.84 2804.61 1143.5 2861.5 1143.5 2918.39 1143.5 2964.5 1189.84 2964.5 1247 2964.5 1304.16 2918.39 1350.5 2861.5 1350.5 2804.61 1350.5 2758.5 1304.16 2758.5 1247Z" stroke="#042433" stroke-width="6.875" stroke-linecap="butt" stroke-linejoin="miter" stroke-miterlimit="8" stroke-opacity="1" fill="none" fill-rule="evenodd"/><text fill="#000000" fill-opacity="1" font-family="Cambria Math,Cambria Math_MSFontService,sans-serif" font-style="normal" font-variant="normal" font-weight="400" font-stretch="normal" font-size="83" text-anchor="start" direction="ltr" writing-mode="lr-tb" unicode-bidi="normal" text-decoration="none" transform="matrix(1 0 0 1 2833.78 1273)">⊥</text><path d="M2507.5 925.5C2507.5 868.615 2553.84 822.5 2611 822.5 2668.16 822.5 2714.5 868.615 2714.5 925.5 2714.5 982.385 2668.16 1028.5 2611 1028.5 2553.84 1028.5 2507.5 982.385 2507.5 925.5Z" stroke="#042433" stroke-width="6.875" stroke-linecap="butt" stroke-linejoin="miter" stroke-miterlimit="8" stroke-opacity="1" fill="none" fill-rule="evenodd"/><text fill="#000000" fill-opacity="1" font-family="Aptos,Aptos_MSFontService,sans-serif" font-style="normal" font-variant="normal" font-weight="400" font-stretch="normal" font-size="83" text-anchor="start" direction="ltr" writing-mode="lr-tb" unicode-bidi="normal" text-decoration="none" transform="matrix(1 0 0 1 2588.79 951)">a</text><path d="M2788.55 1173.76 2611.5 1028.5" stroke="#156082" stroke-width="6.875" stroke-linecap="butt" stroke-linejoin="miter" stroke-miterlimit="8" stroke-opacity="1" fill="none" fill-rule="evenodd"/><path d="M0 0 177.055 136.136" stroke="#156082" stroke-width="6.875" stroke-linecap="butt" stroke-linejoin="miter" stroke-miterlimit="8" stroke-opacity="1" fill="none" fill-rule="evenodd" transform="matrix(1 0 0 -1 2611.5 821.636)"/><path d="M3008.5 925.5C3008.5 868.615 3054.84 822.5 3112 822.5 3169.16 822.5 3215.5 868.615 3215.5 925.5 3215.5 982.385 3169.16 1028.5 3112 1028.5 3054.84 1028.5 3008.5 982.385 3008.5 925.5Z" stroke="#042433" stroke-width="6.875" stroke-linecap="butt" stroke-linejoin="miter" stroke-miterlimit="8" stroke-opacity="1" fill="none" fill-rule="evenodd"/><text fill="#000000" fill-opacity="1" font-family="Aptos,Aptos_MSFontService,sans-serif" font-style="normal" font-variant="normal" font-weight="400" font-stretch="normal" font-size="83" text-anchor="start" direction="ltr" writing-mode="lr-tb" unicode-bidi="normal" text-decoration="none" transform="matrix(1 0 0 1 3087.94 951)">b</text><path d="M0 0 177.055 145.262" stroke="#156082" stroke-width="6.875" stroke-linecap="butt" stroke-linejoin="miter" stroke-miterlimit="8" stroke-opacity="1" fill="none" fill-rule="evenodd" transform="matrix(1 0 0 -1 2934.5 1173.76)"/><path d="M3111.55 821.636 2934.5 685.5" stroke="#156082" stroke-width="6.875" stroke-linecap="butt" stroke-linejoin="miter" stroke-miterlimit="8" stroke-opacity="1" fill="none" fill-rule="evenodd"/></g></g></svg>