<?xml version="1.0" encoding="utf-8"?>
<!-- Generator: Adobe Illustrator 27.5.0, SVG Export Plug-In . SVG Version: 6.00 Build 0)  -->
<svg version="1.1" id="Layer_1" xmlns="http://www.w3.org/2000/svg" xmlns:xlink="http://www.w3.org/1999/xlink" x="0px" y="0px"
	 viewBox="0 0 2400 304" style="enable-background:new 0 0 2400 304;" xml:space="preserve">
<style type="text/css">
	.st0{fill:none;}
	.st1{opacity:0.25;fill:none;stroke:#3B82F6;stroke-width:2;enable-background:new    ;}
	.st2{opacity:0.2;fill:none;stroke:#3B82F6;stroke-width:2;enable-background:new    ;}
	.st3{opacity:0.3;fill:none;stroke:#3B82F6;stroke-width:3;enable-background:new    ;}
	.st4{opacity:0.25;fill:none;stroke:#3B82F6;stroke-width:3;enable-background:new    ;}
	.st5{opacity:0.2;fill:none;stroke:#3B82F6;stroke-width:3;enable-background:new    ;}
	.st6{opacity:0.15;fill:none;stroke:#3B82F6;stroke-width:2;enable-background:new    ;}
	.st7{fill:none;stroke:#D6DCE5;stroke-width:0.5;}
	.st8{fill:url(#SVGID_1_);}
	.st9{fill:url(#SVGID_00000087389457222658107070000004304589528428786341_);}
	.st10{fill:url(#SVGID_00000076570859137677358490000005058533584702790043_);}
	.st11{opacity:0.8;fill:#2563EB;enable-background:new    ;}
	.st12{opacity:0.5;fill:none;stroke:#2563EB;stroke-width:2;enable-background:new    ;}
	.st13{opacity:0.7;stroke:#0F4C8A;stroke-width:3;stroke-dasharray:10,5;enable-background:new    ;}
	.st14{fill:#F97316;}
	.st15{fill:#A16003;}
	.st16{font-family:'CourierNewPS-BoldMT';}
	.st17{font-size:54px;}
	.st18{fill:#2563EB;}
	.st19{font-size:64px;}
	.st20{fill:#64748B;}
	.st21{font-family:'Arial-ItalicMT';}
	.st22{font-size:24px;}
</style>
<pattern x="600" y="104" width="300" height="300" patternUnits="userSpaceOnUse" 
         id="flow-pattern" viewBox="0 0 300 300" style="overflow:visible;">

	<g>
		<rect x="0.6" y="-300" class="st0" width="300" height="300"/>
		<path class="st1" d="M0.6-50c50,20,50-20,100,0s50,20,100,0s50-20,100,0		">
<animate  accumulate="none" additive="replace" attributeName="d" calcMode="linear" dur="12s" fill="remove" repeatCount="indefinite" restart="always" values="M0,50 C50,30 50,70 100,50 S150,30 200,50 S250,70 300,50;                          M0,50 C50,70 50,30 100,50 S150,70 200,50 S250,30 300,50;                          M0,50 C50,30 50,70 100,50 S150,30 200,50 S250,70 300,50">
				</animate>
		</path>
		<path class="st2" d="M0.6-75c50,20,50-20,100,0s50,20,100,0s50-20,100,0		">
<animate  accumulate="none" additive="replace" attributeName="d" calcMode="linear" dur="18s" fill="remove" repeatCount="indefinite" restart="always" values="M0,75 C50,55 50,95 100,75 S150,55 200,75 S250,95 300,75;                          M0,75 C50,95 50,55 100,75 S150,95 200,75 S250,55 300,75;                          M0,75 C50,55 50,95 100,75 S150,55 200,75 S250,95 300,75">
				</animate>
		</path>
		<path class="st3" d="M0.6-100c50,20,50-20,100,0s50,20,100,0s50-20,100,0		">
<animate  accumulate="none" additive="replace" attributeName="d" calcMode="linear" dur="10s" fill="remove" repeatCount="indefinite" restart="always" values="M0,100 C50,80 50,120 100,100 S150,80 200,100 S250,120 300,100;                          M0,100 C50,120 50,80 100,100 S150,120 200,100 S250,80 300,100;                          M0,100 C50,80 50,120 100,100 S150,80 200,100 S250,120 300,100">
				</animate>
		</path>
		<path class="st2" d="M0.6-125c50,20,50-20,100,0s50,20,100,0s50-20,100,0		">
<animate  accumulate="none" additive="replace" attributeName="d" calcMode="linear" dur="16s" fill="remove" repeatCount="indefinite" restart="always" values="M0,125 C50,105 50,145 100,125 S150,105 200,125 S250,145 300,125;                          M0,125 C50,145 50,105 100,125 S150,145 200,125 S250,105 300,125;                          M0,125 C50,105 50,145 100,125 S150,105 200,125 S250,145 300,125">
				</animate>
		</path>
		<path class="st4" d="M0.6-150c50,20,50-20,100,0s50,20,100,0s50-20,100,0		">
<animate  accumulate="none" additive="replace" attributeName="d" calcMode="linear" dur="15s" fill="remove" repeatCount="indefinite" restart="always" values="M0,150 C50,130 50,170 100,150 S150,130 200,150 S250,170 300,150;                          M0,150 C50,170 50,130 100,150 S150,170 200,150 S250,130 300,150;                          M0,150 C50,130 50,170 100,150 S150,130 200,150 S250,170 300,150">
				</animate>
		</path>
		<path class="st2" d="M0.6-175c50,20,50-20,100,0s50,20,100,0s50-20,100,0		">
<animate  accumulate="none" additive="replace" attributeName="d" calcMode="linear" dur="14s" fill="remove" repeatCount="indefinite" restart="always" values="M0,175 C50,155 50,195 100,175 S150,155 200,175 S250,195 300,175;                          M0,175 C50,195 50,155 100,175 S150,195 200,175 S250,155 300,175;                          M0,175 C50,155 50,195 100,175 S150,155 200,175 S250,195 300,175">
				</animate>
		</path>
		<path class="st5" d="M0.6-200c50,20,50-20,100,0s50,20,100,0s50-20,100,0		">
<animate  accumulate="none" additive="replace" attributeName="d" calcMode="linear" dur="20s" fill="remove" repeatCount="indefinite" restart="always" values="M0,200 C50,180 50,220 100,200 S150,180 200,200 S250,220 300,200;                          M0,200 C50,220 50,180 100,200 S150,220 200,200 S250,180 300,200;                          M0,200 C50,180 50,220 100,200 S150,180 200,200 S250,220 300,200">
				</animate>
		</path>
		<path class="st2" d="M0.6-225c50,20,50-20,100,0s50,20,100,0s50-20,100,0		">
<animate  accumulate="none" additive="replace" attributeName="d" calcMode="linear" dur="17s" fill="remove" repeatCount="indefinite" restart="always" values="M0,225 C50,205 50,245 100,225 S150,205 200,225 S250,245 300,225;                          M0,225 C50,245 50,205 100,225 S150,245 200,225 S250,205 300,225;                          M0,225 C50,205 50,245 100,225 S150,205 200,225 S250,245 300,225">
				</animate>
		</path>
		<path class="st6" d="M0.6-250c50,20,50-20,100,0s50,20,100,0s50-20,100,0		">
<animate  accumulate="none" additive="replace" attributeName="d" calcMode="linear" dur="19s" fill="remove" repeatCount="indefinite" restart="always" values="M0,250 C50,230 50,270 100,250 S150,230 200,250 S250,270 300,250;                          M0,250 C50,270 50,230 100,250 S150,270 200,250 S250,230 300,250;                          M0,250 C50,230 50,270 100,250 S150,230 200,250 S250,270 300,250">
				</animate>
		</path>
	</g>
</pattern>
<pattern  x="600" y="304" width="40" height="40" patternUnits="userSpaceOnUse" id="grid-pattern" viewBox="0.2 -40.2 40 40" style="overflow:visible;">
	<g>
		<rect x="0.2" y="-40.2" class="st0" width="40" height="40"/>
		<path class="st7" d="M40.2-0.2h-40v-40"/>
	</g>
</pattern>
<linearGradient id="SVGID_1_" gradientUnits="userSpaceOnUse" x1="241.0492" y1="693.9533" x2="242.5492" y2="692.4533" gradientTransform="matrix(1200 0 0 -300 -288959 208115)">
	<stop  offset="0" style="stop-color:#F5F7FA"/>
	<stop  offset="1" style="stop-color:#EDF2F7"/>
</linearGradient>
<rect y="4" class="st8" width="2400" height="300"/>
<pattern  id="SVGID_00000059282349770404456540000014139056854011126691_" xlink:href="#grid-pattern" patternTransform="matrix(1 0 0 -1 39 -15653.5)">
</pattern>
<rect y="4" style="fill:url(#SVGID_00000059282349770404456540000014139056854011126691_);" width="2400" height="300"/>
<pattern  id="SVGID_00000042018251038904261860000008710705985198375323_" xlink:href="#flow-pattern" patternTransform="matrix(1 0 0 -1 59 -16113)">
</pattern>
<rect y="4" style="fill:url(#SVGID_00000042018251038904261860000008710705985198375323_);" width="2400" height="300"/>
<g>
	<circle class="st11" cx="800" cy="154" r="25"/>
	<circle class="st12" cx="800" cy="154" r="30">
	
		<animate  accumulate="none" additive="replace" attributeName="r" calcMode="linear" dur="3s" fill="remove" repeatCount="indefinite" restart="always" values="30;35;30">
		</animate>
	</circle>
	<circle class="st11" cx="1100" cy="104" r="20"/>
	<circle class="st12" cx="1100" cy="104" r="25">
	
		<animate  accumulate="none" additive="replace" attributeName="r" calcMode="linear" dur="4s" fill="remove" repeatCount="indefinite" restart="always" values="25;30;25">
		</animate>
	</circle>
	<circle class="st11" cx="1400" cy="184" r="22"/>
	<circle class="st12" cx="1400" cy="184" r="27">
	
		<animate  accumulate="none" additive="replace" attributeName="r" calcMode="linear" dur="5s" fill="remove" repeatCount="indefinite" restart="always" values="27;32;27">
		</animate>
	</circle>
	<circle class="st11" cx="1600" cy="124" r="18"/>
	<circle class="st12" cx="1600" cy="124" r="23">
	
		<animate  accumulate="none" additive="replace" attributeName="r" calcMode="linear" dur="6s" fill="remove" repeatCount="indefinite" restart="always" values="23;28;23">
		</animate>
	</circle>
	<path id="path1" class="st13" d="M800,154l300-50	">
<animate  accumulate="none" additive="replace" attributeName="stroke-dashoffset" calcMode="linear" dur="2s" fill="remove" repeatCount="indefinite" restart="always" values="0;-30">
			</animate>
	</path>
	<path id="path2" class="st13" d="M1100,104l300,80	">
<animate  accumulate="none" additive="replace" attributeName="stroke-dashoffset" calcMode="linear" dur="2.5s" fill="remove" repeatCount="indefinite" restart="always" values="0;-30">
			</animate>
	</path>
	<path id="path3" class="st13" d="M1400,184l200-60	">
<animate  accumulate="none" additive="replace" attributeName="stroke-dashoffset" calcMode="linear" dur="3s" fill="remove" repeatCount="indefinite" restart="always" values="0;-30">
			</animate>
	</path>
	<circle class="st14" cx="800" cy="154" r="5">
	
		<animate  accumulate="none" additive="replace" attributeName="cx" calcMode="linear" dur="2s" fill="remove" repeatCount="indefinite" restart="always" values="800;1100">
		</animate>
	
		<animate  accumulate="none" additive="replace" attributeName="cy" calcMode="linear" dur="2s" fill="remove" repeatCount="indefinite" restart="always" values="150;100">
		</animate>
	</circle>
	<circle class="st14" cx="1100" cy="104" r="5">
	
		<animate  accumulate="none" additive="replace" attributeName="cx" calcMode="linear" dur="2s" fill="remove" repeatCount="indefinite" restart="always" values="1100;1400">
		</animate>
	
		<animate  accumulate="none" additive="replace" attributeName="cy" calcMode="linear" dur="2s" fill="remove" repeatCount="indefinite" restart="always" values="100;180">
		</animate>
	</circle>
	<circle class="st14" cx="1400" cy="184" r="5">
	
		<animate  accumulate="none" additive="replace" attributeName="cx" calcMode="linear" dur="3s" fill="remove" repeatCount="indefinite" restart="always" values="1400;1600">
		</animate>
	
		<animate  accumulate="none" additive="replace" attributeName="cy" calcMode="linear" dur="3s" fill="remove" repeatCount="indefinite" restart="always" values="180;120">
		</animate>
	</circle>

		<circle class="st14" cx="800" cy="154" r="5">
	
		<animate  accumulate="none" additive="replace" attributeName="cx" calcMode="linear" dur="2.5s" fill="remove" repeatCount="indefinite" restart="always" values="800;1100">
		</animate>
	
		<animate  accumulate="none" additive="replace" attributeName="cy" calcMode="linear" dur="2.5s" fill="remove" repeatCount="indefinite" restart="always" values="150;100">
		</animate>
	</circle>
	<circle class="st14" cx="1100" cy="104" r="5">
	
		<animate  accumulate="none" additive="replace" attributeName="cx" calcMode="linear" dur="2.5s" fill="remove" repeatCount="indefinite" restart="always" values="1100;1400">
		</animate>
	
		<animate  accumulate="none" additive="replace" attributeName="cy" calcMode="linear" dur="2.5s" fill="remove" repeatCount="indefinite" restart="always" values="100;180">
		</animate>
	</circle>
	<circle class="st14" cx="1400" cy="184" r="5">
	
		<animate  accumulate="none" additive="replace" attributeName="cx" calcMode="linear" dur="3.75s" fill="remove" repeatCount="indefinite" restart="always" values="1400;1600">
		</animate>
	
		<animate  accumulate="none" additive="replace" attributeName="cy" calcMode="linear" dur="3.75s" fill="remove" repeatCount="indefinite" restart="always" values="180;120">
		</animate>
	</circle>

</g>
<g>
	<text transform="matrix(1 0 0 1 1010.5684 164)" class="st15 st16 st17">async stream</text>
	<text transform="matrix(1 0 0 1 915 164)" class="st18 st16 st19">{</text>
	<text transform="matrix(1 0 0 1 1455 164)" class="st18 st16 st19">}</text>
	<text transform="matrix(1 0 0 1 850 235)" class="st20 st21 st22">asynchronous data · distributed systems · stream of consciousness</text>
</g>
<path id="path-wave1" class="st0" d="M0,54
  C300,34 300,74 600,54
  S900,34 1200,54
  S1500,74 1800,54
  S2100,34 2400,54"/>
<path id="path-wave2" class="st0" d="M0,79
  C300,59 300,99 600,79
  S900,59 1200,79
  S1500,99 1800,79
  S2100,59 2400,79"/>
<path id="path-wave3" class="st0" d="M0,104
  C300,84 300,124 600,104
  S900,84 1200,104
  S1500,124 1800,104
  S2100,84 2400,104"/>
<path id="path-wave4" class="st0" d="M0,129
  C300,109 300,149 600,129
  S900,109 1200,129
  S1500,149 1800,129
  S2100,109 2400,129"/>
<path id="path-wave5" class="st0" d="M0,154
  C300,134 300,174 600,154
  S900,134 1200,154
  S1500,174 1800,154
  S2100,134 2400,154"/>
<path id="path-wave6" class="st0" d="M0,179
  C300,159 300,199 600,179
  S900,159 1200,179
  S1500,199 1800,179
  S2100,159 2400,179"/>
<path id="path-wave7" class="st0" d="M0,204
  C300,184 300,224 600,204
  S900,184 1200,204
  S1500,224 1800,204
  S2100,184 2400,204"/>
<path id="path-wave8" class="st0" d="M0,229
  C300,209 300,249 600,229
  S900,209 1200,229
  S1500,249 1800,229
  S2100,209 2400,229"/>
<path id="path-wave9" class="st0" d="M0,254
  C300,234 300,274 600,254
  S900,234 1200,254
  S1500,274 1800,254
  S2100,234 2400,254"/>
</svg>
