<svg xmlns="http://www.w3.org/2000/svg" xmlns:xlink="http://www.w3.org/1999/xlink" contentStyleType="text/css" data-diagram-type="SEQUENCE" height="629px" preserveAspectRatio="none" style="width:329px;height:629px;" version="1.1" viewBox="0 0 329 629" width="329px" zoomAndPan="magnify"><defs/><g><g><title>&#129489;</title><rect fill="#000000" fill-opacity="0.00000" height="523.5215" width="8" x="32" y="53.404"/><line style="stroke:#BBBBBB;stroke-width:0.5;stroke-dasharray:5.0,5.0;" x1="36" x2="36" y1="53.404" y2="576.9255"/></g><g><title>&#127344;&#65039;</title><rect fill="#000000" fill-opacity="0.00000" height="523.5215" width="8" x="196.5825" y="53.404"/><line style="stroke:#BBBBBB;stroke-width:0.5;stroke-dasharray:5.0,5.0;" x1="200.0493" x2="200.0493" y1="53.404" y2="576.9255"/></g><g><title>&#127345;&#65039;</title><rect fill="#000000" fill-opacity="0.00000" height="523.5215" width="8" x="281.6606" y="53.404"/><line style="stroke:#BBBBBB;stroke-width:0.5;stroke-dasharray:5.0,5.0;" x1="285.1274" x2="285.1274" y1="53.404" y2="576.9255"/></g><g class="participant participant-head" data-participant="User"><rect fill="#F8F8F8" height="47.404" rx="2.5" ry="2.5" style="stroke:#888888;stroke-width:0.5;" width="42" x="15" y="5"/><text fill="#222222" font-family="Helvetica Neue" font-size="28" lengthAdjust="spacing" textLength="28" x="22" y="39.44">&#129489;</text></g><g class="participant participant-tail" data-participant="User"><rect fill="#F8F8F8" height="47.404" rx="2.5" ry="2.5" style="stroke:#888888;stroke-width:0.5;" width="42" x="15" y="575.9255"/><text fill="#222222" font-family="Helvetica Neue" font-size="28" lengthAdjust="spacing" textLength="28" x="22" y="610.3655">&#129489;</text></g><g class="participant participant-head" data-participant="NodeA"><rect fill="#F8F8F8" height="47.404" rx="2.5" ry="2.5" style="stroke:#888888;stroke-width:0.5;" width="43.0664" x="179.0493" y="5"/><text fill="#222222" font-family="Helvetica Neue" font-size="28" lengthAdjust="spacing" textLength="29.0664" x="186.0493" y="39.44">&#127344;&#65039;</text></g><g class="participant participant-tail" data-participant="NodeA"><rect fill="#F8F8F8" height="47.404" rx="2.5" ry="2.5" style="stroke:#888888;stroke-width:0.5;" width="43.0664" x="179.0493" y="575.9255"/><text fill="#222222" font-family="Helvetica Neue" font-size="28" lengthAdjust="spacing" textLength="29.0664" x="186.0493" y="610.3655">&#127344;&#65039;</text></g><g class="participant participant-head" data-participant="NodeB"><rect fill="#F8F8F8" height="47.404" rx="2.5" ry="2.5" style="stroke:#888888;stroke-width:0.5;" width="43.0664" x="264.1274" y="5"/><text fill="#222222" font-family="Helvetica Neue" font-size="28" lengthAdjust="spacing" textLength="29.0664" x="271.1274" y="39.44">&#127345;&#65039;</text></g><g class="participant participant-tail" data-participant="NodeB"><rect fill="#F8F8F8" height="47.404" rx="2.5" ry="2.5" style="stroke:#888888;stroke-width:0.5;" width="43.0664" x="264.1274" y="575.9255"/><text fill="#222222" font-family="Helvetica Neue" font-size="28" lengthAdjust="spacing" textLength="29.0664" x="271.1274" y="610.3655">&#127345;&#65039;</text></g><path d="M168,68.404 L168,116.404 L231,116.404 L231,78.404 L221,68.404 L168,68.404" fill="#FFAAAA" style="stroke:#181818;stroke-width:0.5;"/><path d="M221,68.404 L221,78.404 L231,78.404 L221,68.404" fill="#FFAAAA" style="stroke:#181818;stroke-width:0.5;"/><text fill="#000000" font-family="sans-serif" font-size="13" lengthAdjust="spacing" textLength="42.4785" x="174" y="85.9724">!edible</text><line style="stroke:#181818;stroke-width:1;" x1="169" x2="230.4785" y1="88.7145" y2="88.7145"/><line style="stroke:#181818;stroke-width:1;" x1="169" x2="230.4785" y1="90.7145" y2="90.7145"/><text fill="#000000" font-family="sans-serif" font-size="13" lengthAdjust="spacing" textLength="35.3311" x="174" y="105.2829">(&#8709;, &#8709;)</text><path d="M253,127.0251 L253,175.0251 L316,175.0251 L316,137.0251 L306,127.0251 L253,127.0251" fill="#FFAAAA" style="stroke:#181818;stroke-width:0.5;"/><path d="M306,127.0251 L306,137.0251 L316,137.0251 L306,127.0251" fill="#FFAAAA" style="stroke:#181818;stroke-width:0.5;"/><text fill="#000000" font-family="sans-serif" font-size="13" lengthAdjust="spacing" textLength="42.4785" x="259" y="144.5935">!edible</text><line style="stroke:#181818;stroke-width:1;" x1="254" x2="315.4785" y1="147.3356" y2="147.3356"/><line style="stroke:#181818;stroke-width:1;" x1="254" x2="315.4785" y1="149.3356" y2="149.3356"/><text fill="#000000" font-family="sans-serif" font-size="13" lengthAdjust="spacing" textLength="35.3311" x="259" y="163.904">(&#8709;, &#8709;)</text><g class="message" data-participant-1="User" data-participant-2="NodeA"><polygon fill="#555555" points="188.5825,197.9567,198.5825,201.9567,188.5825,205.9567,192.5825,201.9567" style="stroke:#555555;stroke-width:1;"/><line style="stroke:#555555;stroke-width:1;" x1="36" x2="194.5825" y1="201.9567" y2="201.9567"/><text fill="#000000" font-family="sans-serif" font-size="13" font-weight="bold" lengthAdjust="spacing" textLength="8.5757" x="43" y="197.2145">1</text><text fill="#000000" font-family="sans-serif" font-size="13" lengthAdjust="spacing" textLength="77.2827" x="55.5757" y="197.2145">add({apples,</text><text fill="#000000" font-family="sans-serif" font-size="13" lengthAdjust="spacing" textLength="4.1133" x="132.8584" y="197.2145">&#160;</text><text fill="#000000" font-family="sans-serif" font-size="13" lengthAdjust="spacing" textLength="46.6108" x="136.9717" y="197.2145">honey})</text></g><path d="M163,214.9567 L163,293.9567 L237,293.9567 L237,224.9567 L227,214.9567 L163,214.9567" fill="#AAFFAA" style="stroke:#181818;stroke-width:0.5;"/><path d="M227,214.9567 L227,224.9567 L237,224.9567 L227,214.9567" fill="#AAFFAA" style="stroke:#181818;stroke-width:0.5;"/><text fill="#000000" font-family="sans-serif" font-size="13" lengthAdjust="spacing" textLength="38.3652" x="169" y="232.5251">edible</text><line style="stroke:#181818;stroke-width:1;" x1="164" x2="236.7393" y1="235.2673" y2="235.2673"/><line style="stroke:#181818;stroke-width:1;" x1="164" x2="236.7393" y1="237.2673" y2="237.2673"/><text fill="#000000" font-family="sans-serif" font-size="13" lengthAdjust="spacing" textLength="53.7393" x="169" y="251.8356">({apples,</text><text fill="#000000" font-family="sans-serif" font-size="13" lengthAdjust="spacing" textLength="46.4966" x="169" y="267.1462">honey},</text><text fill="#000000" font-family="sans-serif" font-size="13" lengthAdjust="spacing" textLength="13.5522" x="169" y="282.4567">&#8709;)</text><g class="message" data-participant-1="User" data-participant-2="NodeB"><polygon fill="#555555" points="273.6606,316.5095,283.6606,320.5095,273.6606,324.5095,277.6606,320.5095" style="stroke:#555555;stroke-width:1;"/><line style="stroke:#555555;stroke-width:1;" x1="36" x2="279.6606" y1="320.5095" y2="320.5095"/><text fill="#000000" font-family="sans-serif" font-size="13" font-weight="bold" lengthAdjust="spacing" textLength="8.5757" x="43" y="315.7673">2</text><text fill="#000000" font-family="sans-serif" font-size="13" lengthAdjust="spacing" textLength="77.2002" x="55.5757" y="315.7673">add({bleach,</text><text fill="#000000" font-family="sans-serif" font-size="13" lengthAdjust="spacing" textLength="4.1133" x="132.7759" y="315.7673">&#160;</text><text fill="#000000" font-family="sans-serif" font-size="13" lengthAdjust="spacing" textLength="45.4048" x="136.8892" y="315.7673">Paxos})</text></g><path d="M248,333.5095 L248,412.5095 L322,412.5095 L322,343.5095 L312,333.5095 L248,333.5095" fill="#FFAAAA" style="stroke:#181818;stroke-width:0.5;"/><path d="M312,333.5095 L312,343.5095 L322,343.5095 L312,333.5095" fill="#FFAAAA" style="stroke:#181818;stroke-width:0.5;"/><text fill="#000000" font-family="sans-serif" font-size="13" lengthAdjust="spacing" textLength="42.4785" x="254" y="351.0778">!edible</text><line style="stroke:#181818;stroke-width:1;" x1="249" x2="321.6567" y1="353.82" y2="353.82"/><line style="stroke:#181818;stroke-width:1;" x1="249" x2="321.6567" y1="355.82" y2="355.82"/><text fill="#000000" font-family="sans-serif" font-size="13" lengthAdjust="spacing" textLength="53.6567" x="254" y="370.3884">({bleach,</text><text fill="#000000" font-family="sans-serif" font-size="13" lengthAdjust="spacing" textLength="45.2905" x="254" y="385.6989">Paxos},</text><text fill="#000000" font-family="sans-serif" font-size="13" lengthAdjust="spacing" textLength="13.5522" x="254" y="401.0095">&#8709;)</text><g class="message" data-participant-1="NodeB" data-participant-2="NodeA"><polygon fill="#555555" points="211.5825,435.0622,201.5825,439.0622,211.5825,443.0622,207.5825,439.0622" style="stroke:#555555;stroke-width:1;"/><line style="stroke:#555555;stroke-width:1;" x1="205.5825" x2="284.6606" y1="439.0622" y2="439.0622"/><text fill="#000000" font-family="sans-serif" font-size="13" font-weight="bold" lengthAdjust="spacing" textLength="8.5757" x="217.5825" y="434.32">3</text><text fill="#000000" font-family="sans-serif" font-size="13" lengthAdjust="spacing" textLength="48.5024" x="230.1582" y="434.32">merge()</text></g><path d="M161,452.0622 L161,561.0622 L239,561.0622 L239,462.0622 L229,452.0622 L161,452.0622" fill="#FFAAAA" style="stroke:#181818;stroke-width:0.5;"/><path d="M229,452.0622 L229,462.0622 L239,462.0622 L229,452.0622" fill="#FFAAAA" style="stroke:#181818;stroke-width:0.5;"/><text fill="#000000" font-family="sans-serif" font-size="13" lengthAdjust="spacing" textLength="42.4785" x="167" y="469.6306">!edible</text><line style="stroke:#181818;stroke-width:1;" x1="162" x2="238.8525" y1="472.3727" y2="472.3727"/><line style="stroke:#181818;stroke-width:1;" x1="162" x2="238.8525" y1="474.3727" y2="474.3727"/><text fill="#000000" font-family="sans-serif" font-size="13" lengthAdjust="spacing" textLength="53.7393" x="167" y="488.9411">({apples,</text><text fill="#000000" font-family="sans-serif" font-size="13" lengthAdjust="spacing" textLength="42.269" x="167" y="504.2517">honey,</text><text fill="#000000" font-family="sans-serif" font-size="13" lengthAdjust="spacing" textLength="45.2017" x="167" y="519.5622">bleach,</text><text fill="#000000" font-family="sans-serif" font-size="13" lengthAdjust="spacing" textLength="45.2905" x="167" y="534.8727">Paxos},</text><text fill="#000000" font-family="sans-serif" font-size="13" lengthAdjust="spacing" textLength="13.5522" x="167" y="550.1833">&#8709;)</text><!--SRC=[bLJDRjD04BxlKmpfeObaf90eKeG4abCKSMYZ2ie3ZEs9iyJUDRjEIQbwhCGDyGGSkT9RduSNW4TWrZ-AcyIMM4i-p7n_izxrALpeY8pomEOtYRGhiFHfGoeaY2J61bDOQWDdxzvSWLIneKYIoYtG5jCi8I5EuSgWiXaQhaE0uJesUgEYWXOaEcPQJYoKIws4NKl5K5RT8Szqmj1yf-94Bz7aCfGPicYHJCKDSfsnYReL0BCzqPFbr3skemsFMLMdKrUQQvLNXT5eL1NUooy4exgzm9IWzvQIQs8VX0LjgCUzIumYJWGlXkBEfVMDqPy1UUf4Bed3KaVe0bmPJoQJ8uXp5ZbdaIUXWo3eWhPCpk4MEk-Auzg7R5vXs8Pkng8X3N7OWcniyNWyxW2LszubS_nJ7CVxYOmLX7oKo3GWAMulo5gCgR8RYYC25QJTaxVqWoMWL7-KnIdFTgVG5WM4KASPXha7QN6x8D5wBHeuwFtzyVDx3z0wBRFVkl_rv_5RqLqmtpzeFpJRCo5maskrIGDM4ifzRdrDfkJ2oNpkymBnZEzkm5Vs5I_H__trtWD-3GJniNMaVUhiVwXk2dZ-klHy2Nm_-hUOyH_2Uh3IYcxk1eV9VDyPW7YYNjD4IVD4XzEiSc8sXYkFx-LMsmEdra5gdYXv1rObUJTLIYQc_g1jY_VLw_dBIJpHxVOF]--></g></svg>